<?xml version="1.0" encoding="UTF-8"?>
<svg viewBox="0 0 492 779.00006" xmlns="http://www.w3.org/2000/svg">
 <g transform="translate(-555.19 -353.77)">
  <path d="m596.19 394.77h41v41h-41z"/>
  <path d="m637.19 435.77h41v41h-41z"/>
  <path d="m678.19 476.77h41v41h-41z"/>
  <path d="m719.19 517.77h41v41h-41z"/>
  <path d="m760.19 558.77h41v41h-41z"/>
  <path d="m801.19 599.77h41v41h-41z"/>
  <path d="m842.19 640.77h41v41h-41z"/>
  <path d="m883.19 681.77h41v41h-41z"/>
  <path d="m924.19 722.77h41v41h-41z"/>
  <path d="m965.19 763.77h41v41h-41z"/>
  <path d="m1006.2 804.77h41v41h-41z"/>
  <path d="m1006.2 845.77h41v41h-41z"/>
  <path d="m965.19 845.77h41v41h-41z"/>
  <path d="m924.19 845.77h41v41h-41z"/>
  <path d="m883.19 845.77h41v41h-41z"/>
  <path d="m842.19 845.77h41v41h-41z"/>
  <path d="m842.19 886.77h41v41h-41z"/>
  <path d="m883.19 927.77h41v41h-41z"/>
  <path d="m883.19 968.77h41v41h-41z"/>
  <path d="m924.19 1009.8h41v41h-41z"/>
  <path d="m924.19 1050.8h41v41h-41z"/>
  <path d="m883.19 1091.8h41v41h-41z"/>
  <path d="m842.19 1091.8h41v41h-41z"/>
  <path d="m801.19 1050.8h41v41h-41z"/>
  <path d="m801.19 1009.8h41v41h-41z"/>
  <path d="m760.19 968.77h41v41h-41z"/>
  <path d="m760.19 927.77h41v41h-41z"/>
  <path d="m719.19 886.77h41v41h-41z"/>
  <path d="m678.19 927.77h41v41h-41z"/>
  <path d="m637.19 968.77h41v41h-41z"/>
  <path d="m596.19 1009.8h41v41h-41z"/>
  <path d="m555.19 1009.8h41v41h-41z"/>
  <path d="m555.19 968.77h41v41h-41z"/>
  <path d="m555.19 927.77h41v41h-41z"/>
  <path d="m555.19 886.77h41v41h-41z"/>
  <path d="m555.19 845.77h41v41h-41z"/>
  <path d="m555.19 804.77h41v41h-41z"/>
  <path d="m555.19 763.77h41v41h-41z"/>
  <path d="m555.19 722.77h41v41h-41z"/>
  <path d="m555.19 681.77h41v41h-41z"/>
  <path d="m555.19 640.77h41v41h-41z"/>
  <path d="m555.19 599.77h41v41h-41z"/>
  <path d="m555.19 558.77h41v41h-41z"/>
  <path d="m555.19 517.77h41v41h-41z"/>
  <path d="m555.19 476.77h41v41h-41z"/>
  <path d="m555.19 435.77h41v41h-41z"/>
  <path d="m555.19 394.77h41v41h-41z"/>
  <path d="m555.19 353.77h41v41h-41z"/>
  <path d="m596.19 435.77h41v41h-41z" fill="#fff"/>
  <path d="m637.19 476.77h41v41h-41z" fill="#fff"/>
  <path d="m596.19 476.77h41v41h-41z" fill="#fff"/>
  <path d="m596.19 517.77h41v41h-41z" fill="#fff"/>
  <path d="m637.19 517.77h41v41h-41z" fill="#fff"/>
  <path d="m678.19 517.77h41v41h-41z" fill="#fff"/>
  <path d="m596.19 558.77h41v41h-41z" fill="#fff"/>
  <path d="m637.19 558.77h41v41h-41z" fill="#fff"/>
  <path d="m678.19 558.77h41v41h-41z" fill="#fff"/>
  <path d="m719.19 558.77h41v41h-41z" fill="#fff"/>
  <path d="m596.19 968.77h41v41h-41z" fill="#fff"/>
  <path d="m596.19 927.77h41v41h-41z" fill="#fff"/>
  <path d="m637.19 927.77h41v41h-41z" fill="#fff"/>
  <path d="m801.19 927.77h41v41h-41z" fill="#fff"/>
  <path d="m842.19 968.77h41v41h-41z" fill="#fff"/>
  <path d="m801.19 968.77h41v41h-41z" fill="#fff"/>
  <path d="m842.19 927.77h41v41h-41z" fill="#fff"/>
  <path d="m842.19 1009.8h41v41h-41z" fill="#fff"/>
  <path d="m883.19 1009.8h41v41h-41z" fill="#fff"/>
  <path d="m842.19 1050.8h41v41h-41z" fill="#fff"/>
  <path d="m883.19 1050.8h41v41h-41z" fill="#fff"/>
  <path d="m760.19 886.77h41v41h-41z" fill="#fff"/>
  <path d="m801.19 886.77h41v41h-41z" fill="#fff"/>
  <path d="m678.19 886.77h41v41h-41z" fill="#fff"/>
  <path d="m637.19 886.77h41v41h-41z" fill="#fff"/>
  <path d="m596.19 886.77h41v41h-41z" fill="#fff"/>
  <path d="m596.19 845.77h41v41h-41z" fill="#fff"/>
  <path d="m637.19 845.77h41v41h-41z" fill="#fff"/>
  <path d="m678.19 845.77h41v41h-41z" fill="#fff"/>
  <path d="m719.19 845.77h41v41h-41z" fill="#fff"/>
  <path d="m760.19 845.77h41v41h-41z" fill="#fff"/>
  <path d="m801.19 845.77h41v41h-41z" fill="#fff"/>
  <path d="m965.19 804.77h41v41h-41z" fill="#fff"/>
  <path d="m924.19 804.77h41v41h-41z" fill="#fff"/>
  <path d="m883.19 804.77h41v41h-41z" fill="#fff"/>
  <path d="m842.19 804.77h41v41h-41z" fill="#fff"/>
  <path d="m801.19 804.77h41v41h-41z" fill="#fff"/>
  <path d="m760.19 804.77h41v41h-41z" fill="#fff"/>
  <path d="m719.19 804.77h41v41h-41z" fill="#fff"/>
  <path d="m678.19 804.77h41v41h-41z" fill="#fff"/>
  <path d="m637.19 804.77h41v41h-41z" fill="#fff"/>
  <path d="m596.19 804.77h41v41h-41z" fill="#fff"/>
  <path d="m596.19 763.77h41v41h-41z" fill="#fff"/>
  <path d="m637.19 763.77h41v41h-41z" fill="#fff"/>
  <path d="m596.19 722.77h41v41h-41z" fill="#fff"/>
  <path d="m596.19 681.77h41v41h-41z" fill="#fff"/>
  <path d="m637.19 722.77h41v41h-41z" fill="#fff"/>
  <path d="m678.19 763.77h41v41h-41z" fill="#fff"/>
  <path d="m719.19 763.77h41v41h-41z" fill="#fff"/>
  <path d="m678.19 722.77h41v41h-41z" fill="#fff"/>
  <path d="m637.19 681.77h41v41h-41z" fill="#fff"/>
  <path d="m596.19 640.77h41v41h-41z" fill="#fff"/>
  <path d="m596.19 599.77h41v41h-41z" fill="#fff"/>
  <path d="m637.19 640.77h41v41h-41z" fill="#fff"/>
  <path d="m678.19 681.77h41v41h-41z" fill="#fff"/>
  <path d="m719.19 722.77h41v41h-41z" fill="#fff"/>
  <path d="m760.19 763.77h41v41h-41z" fill="#fff"/>
  <path d="m637.19 599.77h41v41h-41z" fill="#fff"/>
  <path d="m678.19 640.77h41v41h-41z" fill="#fff"/>
  <path d="m719.19 681.77h41v41h-41z" fill="#fff"/>
  <path d="m760.19 722.77h41v41h-41z" fill="#fff"/>
  <path d="m801.19 763.77h41v41h-41z" fill="#fff"/>
  <path d="m842.19 763.77h41v41h-41z" fill="#fff"/>
  <path d="m883.19 763.77h41v41h-41z" fill="#fff"/>
  <path d="m924.19 763.77h41v41h-41z" fill="#fff"/>
  <path d="m883.19 722.77h41v41h-41z" fill="#fff"/>
  <path d="m842.19 681.77h41v41h-41z" fill="#fff"/>
  <path d="m801.19 640.77h41v41h-41z" fill="#fff"/>
  <path d="m760.19 599.77h41v41h-41z" fill="#fff"/>
  <path d="m719.19 599.77h41v41h-41z" fill="#fff"/>
  <path d="m760.19 640.77h41v41h-41z" fill="#fff"/>
  <path d="m801.19 681.77h41v41h-41z" fill="#fff"/>
  <path d="m842.19 722.77h41v41h-41z" fill="#fff"/>
  <path d="m801.19 722.77h41v41h-41z" fill="#fff"/>
  <path d="m760.19 681.77h41v41h-41z" fill="#fff"/>
  <path d="m719.19 640.77h41v41h-41z" fill="#fff"/>
  <path d="m678.19 599.77h41v41h-41z" fill="#fff"/>
 </g>
</svg>
